<mxfile host="app.diagrams.net" modified="2023-12-15T23:42:04.391Z" agent="Mozilla/5.0 (Windows NT 10.0; Win64; x64) AppleWebKit/537.36 (KHTML, like Gecko) Chrome/120.0.0.0 Safari/537.36" etag="8_dWnsz7jITvEHOCiH_q" version="22.1.11" type="github">
  <diagram name="Página-1" id="VID3NUHrpPWXng5ESyLw">
    <mxGraphModel dx="618" dy="416" grid="1" gridSize="10" guides="1" tooltips="1" connect="1" arrows="1" fold="1" page="1" pageScale="1" pageWidth="827" pageHeight="1169" math="0" shadow="0">
      <root>
        <mxCell id="0" />
        <mxCell id="1" parent="0" />
        <mxCell id="ZvelkVvnxrn3Kucz1_hI-47" style="edgeStyle=orthogonalEdgeStyle;rounded=0;orthogonalLoop=1;jettySize=auto;html=1;entryX=0;entryY=0.5;entryDx=0;entryDy=0;" edge="1" parent="1" source="ZvelkVvnxrn3Kucz1_hI-40" target="ZvelkVvnxrn3Kucz1_hI-43">
          <mxGeometry relative="1" as="geometry">
            <Array as="points">
              <mxPoint x="275" y="380" />
              <mxPoint x="275" y="430" />
            </Array>
          </mxGeometry>
        </mxCell>
        <mxCell id="ZvelkVvnxrn3Kucz1_hI-40" value="Pessoa" style="whiteSpace=wrap;html=1;align=center;" vertex="1" parent="1">
          <mxGeometry x="100" y="360" width="100" height="40" as="geometry" />
        </mxCell>
        <mxCell id="ZvelkVvnxrn3Kucz1_hI-59" style="edgeStyle=orthogonalEdgeStyle;rounded=0;orthogonalLoop=1;jettySize=auto;html=1;entryX=0.5;entryY=0;entryDx=0;entryDy=0;" edge="1" parent="1" source="ZvelkVvnxrn3Kucz1_hI-41" target="ZvelkVvnxrn3Kucz1_hI-43">
          <mxGeometry relative="1" as="geometry" />
        </mxCell>
        <mxCell id="ZvelkVvnxrn3Kucz1_hI-41" value="Banco" style="whiteSpace=wrap;html=1;align=center;" vertex="1" parent="1">
          <mxGeometry x="430" y="240" width="100" height="40" as="geometry" />
        </mxCell>
        <mxCell id="ZvelkVvnxrn3Kucz1_hI-48" style="edgeStyle=orthogonalEdgeStyle;rounded=0;orthogonalLoop=1;jettySize=auto;html=1;entryX=1;entryY=0.5;entryDx=0;entryDy=0;" edge="1" parent="1" source="ZvelkVvnxrn3Kucz1_hI-42" target="ZvelkVvnxrn3Kucz1_hI-43">
          <mxGeometry relative="1" as="geometry" />
        </mxCell>
        <mxCell id="ZvelkVvnxrn3Kucz1_hI-42" value="Company&lt;br&gt;" style="whiteSpace=wrap;html=1;align=center;" vertex="1" parent="1">
          <mxGeometry x="650" y="350" width="100" height="40" as="geometry" />
        </mxCell>
        <mxCell id="ZvelkVvnxrn3Kucz1_hI-43" value="U" style="ellipse;whiteSpace=wrap;html=1;" vertex="1" parent="1">
          <mxGeometry x="460" y="400" width="40" height="40" as="geometry" />
        </mxCell>
        <mxCell id="ZvelkVvnxrn3Kucz1_hI-62" style="edgeStyle=orthogonalEdgeStyle;rounded=0;orthogonalLoop=1;jettySize=auto;html=1;entryX=0;entryY=0.75;entryDx=0;entryDy=0;" edge="1" parent="1" source="ZvelkVvnxrn3Kucz1_hI-61" target="ZvelkVvnxrn3Kucz1_hI-40">
          <mxGeometry relative="1" as="geometry" />
        </mxCell>
        <mxCell id="ZvelkVvnxrn3Kucz1_hI-61" value="&lt;span style=&quot;border-bottom: 1px dotted&quot;&gt;CPF&lt;/span&gt;" style="ellipse;whiteSpace=wrap;html=1;align=center;" vertex="1" parent="1">
          <mxGeometry x="10" y="270" width="100" height="40" as="geometry" />
        </mxCell>
        <mxCell id="ZvelkVvnxrn3Kucz1_hI-63" value="Licença" style="ellipse;whiteSpace=wrap;html=1;align=center;" vertex="1" parent="1">
          <mxGeometry x="130" y="210" width="100" height="40" as="geometry" />
        </mxCell>
        <mxCell id="ZvelkVvnxrn3Kucz1_hI-64" style="edgeStyle=orthogonalEdgeStyle;rounded=0;orthogonalLoop=1;jettySize=auto;html=1;entryX=0.65;entryY=-0.075;entryDx=0;entryDy=0;entryPerimeter=0;" edge="1" parent="1" source="ZvelkVvnxrn3Kucz1_hI-63" target="ZvelkVvnxrn3Kucz1_hI-40">
          <mxGeometry relative="1" as="geometry" />
        </mxCell>
        <mxCell id="ZvelkVvnxrn3Kucz1_hI-65" value="Nome" style="ellipse;whiteSpace=wrap;html=1;align=center;" vertex="1" parent="1">
          <mxGeometry x="60" y="510" width="100" height="40" as="geometry" />
        </mxCell>
        <mxCell id="ZvelkVvnxrn3Kucz1_hI-68" style="edgeStyle=orthogonalEdgeStyle;rounded=0;orthogonalLoop=1;jettySize=auto;html=1;entryX=0.1;entryY=1.05;entryDx=0;entryDy=0;entryPerimeter=0;" edge="1" parent="1" source="ZvelkVvnxrn3Kucz1_hI-65" target="ZvelkVvnxrn3Kucz1_hI-40">
          <mxGeometry relative="1" as="geometry" />
        </mxCell>
        <mxCell id="ZvelkVvnxrn3Kucz1_hI-69" value="Endereço" style="ellipse;whiteSpace=wrap;html=1;align=center;" vertex="1" parent="1">
          <mxGeometry x="230" y="510" width="100" height="40" as="geometry" />
        </mxCell>
        <mxCell id="ZvelkVvnxrn3Kucz1_hI-70" style="edgeStyle=orthogonalEdgeStyle;rounded=0;orthogonalLoop=1;jettySize=auto;html=1;entryX=0.83;entryY=1.05;entryDx=0;entryDy=0;entryPerimeter=0;" edge="1" parent="1" source="ZvelkVvnxrn3Kucz1_hI-69" target="ZvelkVvnxrn3Kucz1_hI-40">
          <mxGeometry relative="1" as="geometry" />
        </mxCell>
        <mxCell id="ZvelkVvnxrn3Kucz1_hI-72" style="edgeStyle=orthogonalEdgeStyle;rounded=0;orthogonalLoop=1;jettySize=auto;html=1;entryX=1;entryY=0.75;entryDx=0;entryDy=0;" edge="1" parent="1" source="ZvelkVvnxrn3Kucz1_hI-71" target="ZvelkVvnxrn3Kucz1_hI-41">
          <mxGeometry relative="1" as="geometry" />
        </mxCell>
        <mxCell id="ZvelkVvnxrn3Kucz1_hI-71" value="Nome" style="ellipse;whiteSpace=wrap;html=1;align=center;" vertex="1" parent="1">
          <mxGeometry x="570" y="230" width="100" height="40" as="geometry" />
        </mxCell>
        <mxCell id="ZvelkVvnxrn3Kucz1_hI-74" style="edgeStyle=orthogonalEdgeStyle;rounded=0;orthogonalLoop=1;jettySize=auto;html=1;entryX=0;entryY=1;entryDx=0;entryDy=0;" edge="1" parent="1" source="ZvelkVvnxrn3Kucz1_hI-73" target="ZvelkVvnxrn3Kucz1_hI-41">
          <mxGeometry relative="1" as="geometry" />
        </mxCell>
        <mxCell id="ZvelkVvnxrn3Kucz1_hI-73" value="Endereço" style="ellipse;whiteSpace=wrap;html=1;align=center;" vertex="1" parent="1">
          <mxGeometry x="280" y="240" width="100" height="40" as="geometry" />
        </mxCell>
        <mxCell id="ZvelkVvnxrn3Kucz1_hI-76" style="edgeStyle=orthogonalEdgeStyle;rounded=0;orthogonalLoop=1;jettySize=auto;html=1;entryX=0.5;entryY=1;entryDx=0;entryDy=0;" edge="1" parent="1" source="ZvelkVvnxrn3Kucz1_hI-75" target="ZvelkVvnxrn3Kucz1_hI-42">
          <mxGeometry relative="1" as="geometry" />
        </mxCell>
        <mxCell id="ZvelkVvnxrn3Kucz1_hI-75" value="Cendereço&lt;br&gt;" style="ellipse;whiteSpace=wrap;html=1;align=center;" vertex="1" parent="1">
          <mxGeometry x="700" y="460" width="100" height="40" as="geometry" />
        </mxCell>
        <mxCell id="ZvelkVvnxrn3Kucz1_hI-78" style="edgeStyle=orthogonalEdgeStyle;rounded=0;orthogonalLoop=1;jettySize=auto;html=1;entryX=0.25;entryY=1;entryDx=0;entryDy=0;" edge="1" parent="1" source="ZvelkVvnxrn3Kucz1_hI-77" target="ZvelkVvnxrn3Kucz1_hI-42">
          <mxGeometry relative="1" as="geometry" />
        </mxCell>
        <mxCell id="ZvelkVvnxrn3Kucz1_hI-77" value="Cnome" style="ellipse;whiteSpace=wrap;html=1;align=center;" vertex="1" parent="1">
          <mxGeometry x="530" y="460" width="100" height="40" as="geometry" />
        </mxCell>
      </root>
    </mxGraphModel>
  </diagram>
</mxfile>
